<?xml version="1.0" standalone="no"?>
<!DOCTYPE svg PUBLIC "-//W3C//DTD SVG 20010904//EN"
 "http://www.w3.org/TR/2001/REC-SVG-20010904/DTD/svg10.dtd">
<svg version="1.0" xmlns="http://www.w3.org/2000/svg"
 width="1107.000000pt" height="262.000000pt" viewBox="0 0 1107.000000 262.000000"
 preserveAspectRatio="xMidYMid meet">

<g transform="translate(0.000000,262.000000) scale(0.100000,-0.100000)"
fill="#000000" stroke="none">
<path d="M0 1310 l0 -1310 5535 0 5535 0 0 1310 0 1310 -5535 0 -5535 0 0
-1310z m3284 701 c135 -36 220 -84 317 -181 94 -93 144 -178 176 -300 22 -88
22 -263 -1 -350 -68 -257 -264 -431 -554 -489 -31 -7 -184 -11 -367 -11 l-315
0 0 340 0 340 50 0 50 0 0 -295 0 -295 255 0 c299 0 367 10 494 72 227 110
345 360 297 626 -38 214 -173 369 -381 439 -79 27 -84 27 -420 33 l-340 5 -3
33 c-7 68 -26 65 336 59 292 -4 336 -7 406 -26z m4283 -648 l311 -678 -50 -3
c-28 -2 -54 0 -58 5 -5 4 -133 284 -286 621 -213 468 -281 609 -287 595 -4
-11 -131 -289 -280 -618 l-272 -600 -57 -3 -56 -3 303 659 c167 363 308 669
314 681 9 17 21 21 59 21 l47 0 312 -677z m-6357 627 l0 -40 -245 0 -245 0 0
-635 0 -635 -50 0 -50 0 0 635 0 635 -245 0 -245 0 0 40 0 40 540 0 540 0 0
-40z m662 -320 c205 -63 338 -254 338 -485 0 -324 -257 -549 -577 -506 -229
31 -396 203 -425 437 -47 387 291 669 664 554z m2740 16 c147 -32 266 -120
332 -246 136 -258 48 -577 -194 -704 -165 -87 -349 -84 -514 8 -142 80 -225
224 -234 407 -5 117 9 187 55 280 100 200 325 303 555 255z m1090 0 c75 -14
218 -71 218 -87 0 -4 -9 -23 -20 -42 l-21 -35 -52 29 c-121 66 -322 78 -431
25 -137 -67 -140 -228 -5 -297 21 -10 109 -35 196 -54 179 -39 213 -49 264
-81 79 -49 115 -123 107 -221 -9 -101 -93 -193 -211 -228 -164 -49 -420 -14
-552 77 -41 27 -41 30 -15 73 l21 33 57 -34 c80 -49 171 -75 282 -81 202 -12
320 57 320 185 0 96 -78 146 -300 191 -194 39 -247 60 -303 120 -88 94 -88
223 0 321 53 59 102 87 187 105 80 17 163 18 258 1z m3011 -1 c184 -39 333
-188 372 -372 52 -242 -44 -477 -235 -577 -131 -69 -297 -83 -425 -35 -68 25
-159 95 -202 156 l-33 47 0 -302 0 -302 -50 0 -50 0 0 695 0 695 50 0 50 0 0
-112 0 -113 18 30 c33 54 105 115 177 151 110 54 204 65 328 39z m1370 -18
c125 -46 208 -121 268 -242 89 -182 72 -395 -45 -559 -54 -76 -134 -134 -233
-168 -94 -32 -252 -32 -334 0 -77 31 -157 89 -199 145 l-35 47 -3 -295 -2
-295 -50 0 -50 0 0 695 0 695 50 0 50 0 0 -107 1 -108 21 30 c123 171 354 237
561 162z"/>
<path d="M1584 1590 c-178 -58 -279 -205 -279 -405 1 -238 141 -398 367 -421
171 -17 325 72 400 231 32 67 33 75 33 190 0 116 -1 123 -34 193 -43 92 -124
170 -208 202 -84 32 -200 36 -279 10z"/>
<path d="M4385 1591 c-78 -22 -99 -34 -158 -90 -91 -85 -133 -204 -125 -351
15 -260 230 -428 483 -377 135 28 225 98 281 220 55 122 53 270 -6 396 -82
173 -282 258 -475 202z"/>
<path d="M8493 1595 c-153 -43 -248 -139 -288 -290 -53 -206 37 -423 208 -500
210 -95 448 -17 540 179 92 195 35 445 -127 553 -92 62 -233 86 -333 58z"/>
<path d="M9795 1594 c-182 -44 -295 -200 -295 -409 0 -127 39 -231 116 -307
150 -150 420 -151 568 -2 141 140 161 390 46 562 -50 74 -126 128 -217 153
-79 22 -135 23 -218 3z"/>
</g>
</svg>
